<svg xmlns="http://www.w3.org/2000/svg" viewBox="0 0 32 32" style="display: block; height: 24px; width: 24px; fill: currentcolor;" aria-hidden="true" role="presentation" focusable="false"><path d="m15 19.24 2 2v3.42l5.03 2.9-1 1.73L17 26.97V31h-2v-4.03l-4.03 2.32-1-1.73 5.03-2.9v-5.42zM3.7 2.3l26 26-1.4 1.42-26-26 1.4-1.42zm-.73 14.27L8 19.46l4.58-2.64 1.46 1.46L9 21.2V27H7v-4.65l-3.49 2.02-1-1.74L6 20.62l-4.03-2.33 1-1.73zm26.06 0 1 1.73L26 20.62l3.49 2.01-.96 1.66-5.23-5.23.7.4 5.03-2.9zM25 5v4.65l3.49-2.02 1 1.74L26 11.38l4.03 2.33-1 1.73-5.03-2.9-4.58 2.64-1.46-1.47 5.04-2.9V5h2zM3.47 7.7l5.22 5.24-.69-.4-5.03 2.9-1-1.73L6 11.38 2.51 9.37l.96-1.66zM17 1v4.03l4.03-2.32 1 1.73L17 7.34v5.42l-2-2V7.34l-5.03-2.9 1-1.73L15 5.03V1h2z"></path></svg>