<svg xmlns="http://www.w3.org/2000/svg" viewBox="0 0 32 32" style="display: block; height: 24px; width: 24px; fill: currentcolor;" aria-hidden="true" role="presentation" focusable="false"><path d="m4.06 2.3 26 26-1.41 1.4-26-26 1.41-1.4zM16 20h.11L20 23.9V24a4 4 0 1 1-4-4zm0 2a2 2 0 1 0 0 4 2 2 0 0 0 0-4zm-3.97-6.08 1.52 1.52a7.02 7.02 0 0 0-4.08 4.03l-1.51-1.51a9.04 9.04 0 0 1 4.07-4.04zM16 10c4.89 0 9.2 2.5 11.7 6.3l-1.45 1.45a12 12 0 0 0-9.64-5.73l-1.95-1.96c.44-.04.89-.06 1.34-.06zm-7.63 2.26 1.45 1.45a12.06 12.06 0 0 0-4.07 4.04L4.3 16.3a14.08 14.08 0 0 1 4.07-4.04zM16 5c6.27 0 11.83 3.03 15.29 7.71l-1.44 1.44a16.98 16.98 0 0 0-17.8-6.69l-1.62-1.63C12.19 5.29 14.06 5 16 5zM4.78 8.67 6.2 10.1a17.1 17.1 0 0 0-4.06 4.05L.7 12.7a19.11 19.11 0 0 1 4.07-4.04z"></path></svg>